<svg version="1.1" id="Layer_1" xmlns="http://www.w3.org/2000/svg" xmlns:xlink="http://www.w3.org/1999/xlink" x="0px" y="0px"
	 width="100%" viewBox="0 0 512 512" enable-background="new 0 0 512 512" xml:space="preserve">
<path fill="#6AAF50" opacity="1.000000" stroke="none" 
	d="
M1.000000,279.000000 
	C1.000000,264.645782 1.000000,250.291550 1.373682,235.262665 
	C2.814507,226.635300 3.800832,218.670731 4.964027,210.732071 
	C8.377781,187.433640 16.107334,165.461151 26.343878,144.407806 
	C36.043636,124.458458 48.201122,106.082642 62.963146,89.381065 
	C77.024124,73.472641 92.366821,59.091427 109.689590,46.831318 
	C127.523918,34.209160 146.715317,24.038618 167.179626,16.500462 
	C185.114365,9.894093 203.555801,4.980267 222.666168,2.959140 
	C226.800278,2.521916 230.889893,1.664094 235.000000,1.000001 
	C249.354233,1.000000 263.708466,1.000000 278.737305,1.373678 
	C287.364716,2.814506 295.329346,3.800822 303.268036,4.964040 
	C326.566437,8.377847 348.538910,16.107361 369.592255,26.343931 
	C389.541595,36.043709 407.917450,48.201126 424.619019,62.963173 
	C440.527374,77.024185 454.908600,92.366844 467.168701,109.689590 
	C479.790863,127.523926 489.961426,146.715317 497.499573,167.179626 
	C504.105896,185.114365 509.019745,203.555801 511.040863,222.666168 
	C511.478058,226.800278 512.335876,230.889893 513.000000,235.000000 
	C513.000000,249.354233 513.000000,263.708466 512.626282,278.737366 
	C510.383606,291.854462 509.172363,304.440186 506.499542,316.707458 
	C501.899200,337.821320 494.157501,357.937744 483.890686,376.948700 
	C479.198303,385.637451 473.351074,393.702484 467.694275,401.969055 
	C465.711823,400.528687 463.940186,399.292755 462.432587,397.791626 
	C447.386261,382.809845 432.407684,367.759888 417.332458,352.807343 
	C415.741425,351.229279 413.654175,350.151489 411.533569,348.647186 
	C408.838348,345.110016 406.810059,341.345886 403.871490,338.532532 
	C400.302826,335.115936 395.966309,332.501282 391.924683,329.161804 
	C390.780029,327.178802 389.889832,325.356812 388.534180,323.999725 
	C322.448029,257.842316 256.329193,191.717606 190.154587,125.648705 
	C188.602142,124.098747 186.373383,123.226219 184.213806,121.838455 
	C181.884323,118.633530 179.938278,115.521019 177.694336,112.640572 
	C167.496216,99.549789 150.698578,95.850014 136.102386,103.662125 
	C121.363007,111.550880 111.259918,123.559822 106.018166,139.423752 
	C100.839073,155.098083 101.757156,170.611298 108.581474,185.633255 
	C130.802902,234.547928 159.704483,278.936707 198.142654,316.768127 
	C206.548721,325.041504 215.358200,332.904968 223.985962,341.142761 
	C224.409714,341.543518 224.829407,341.758728 225.486084,342.006134 
	C226.162964,342.483215 226.602859,342.928070 227.078674,343.755493 
	C228.565781,346.103180 229.793976,348.290863 231.500763,350.000854 
	C275.499725,394.082550 319.556519,438.106567 363.559448,482.184296 
	C365.278290,483.906036 366.565125,486.059052 367.894257,488.339966 
	C360.852814,491.594421 354.088104,494.846252 347.064880,497.382080 
	C328.976654,503.913116 310.500061,508.977631 291.293457,511.040619 
	C287.173035,511.483246 283.096680,512.336121 279.000000,513.000000 
	C264.645782,513.000000 250.291550,513.000000 235.262665,512.626343 
	C226.635284,511.185455 218.670685,510.199219 210.732040,509.035980 
	C187.433594,505.622284 165.461151,497.892609 144.407806,487.656097 
	C124.458435,477.956360 106.082603,465.798920 89.381050,451.036835 
	C73.472618,436.975861 59.091423,421.633179 46.831322,404.310394 
	C34.209164,386.476074 24.038605,367.284698 16.500469,346.820374 
	C9.894108,328.885651 4.980268,310.444214 2.959139,291.333832 
	C2.521912,287.199738 1.664091,283.110107 1.000000,279.000000 
z"/>
<path fill="#FFFFFF" opacity="1.000000" stroke="none" 
	d="
M234.531342,1.000001 
	C230.889893,1.664094 226.800278,2.521916 222.666168,2.959140 
	C203.555801,4.980267 185.114365,9.894093 167.179626,16.500462 
	C146.715317,24.038618 127.523918,34.209160 109.689590,46.831318 
	C92.366821,59.091427 77.024124,73.472641 62.963146,89.381065 
	C48.201122,106.082642 36.043636,124.458458 26.343878,144.407806 
	C16.107334,165.461151 8.377781,187.433640 4.964027,210.732071 
	C3.800832,218.670731 2.814507,226.635300 1.373682,234.794006 
	C1.000000,157.072952 1.000000,79.145912 1.000000,1.000000 
	C78.687424,1.000000 156.375061,1.000000 234.531342,1.000001 
z"/>
<path fill="#FFFFFF" opacity="1.000000" stroke="none" 
	d="
M513.000000,234.531342 
	C512.335876,230.889893 511.478058,226.800278 511.040863,222.666168 
	C509.019745,203.555801 504.105896,185.114365 497.499573,167.179626 
	C489.961426,146.715317 479.790863,127.523926 467.168701,109.689590 
	C454.908600,92.366844 440.527374,77.024185 424.619019,62.963173 
	C407.917450,48.201126 389.541595,36.043709 369.592255,26.343931 
	C348.538910,16.107361 326.566437,8.377847 303.268036,4.964040 
	C295.329346,3.800822 287.364716,2.814506 279.205994,1.373678 
	C356.927032,1.000000 434.854095,1.000000 513.000000,1.000000 
	C513.000000,78.687424 513.000000,156.375061 513.000000,234.531342 
z"/>
<path fill="#FFFFFF" opacity="1.000000" stroke="none" 
	d="
M1.000000,279.468658 
	C1.664091,283.110107 2.521912,287.199738 2.959139,291.333832 
	C4.980268,310.444214 9.894108,328.885651 16.500469,346.820374 
	C24.038605,367.284698 34.209164,386.476074 46.831322,404.310394 
	C59.091423,421.633179 73.472618,436.975861 89.381050,451.036835 
	C106.082603,465.798920 124.458435,477.956360 144.407806,487.656097 
	C165.461151,497.892609 187.433594,505.622284 210.732040,509.035980 
	C218.670685,510.199219 226.635284,511.185455 234.794006,512.626343 
	C157.072968,513.000000 79.145927,513.000000 1.000000,513.000000 
	C1.000000,435.312561 1.000000,357.624939 1.000000,279.468658 
z"/>
<path fill="#FFFFFF" opacity="1.000000" stroke="none" 
	d="
M279.468658,513.000000 
	C283.096680,512.336121 287.173035,511.483246 291.293457,511.040619 
	C310.500061,508.977631 328.976654,503.913116 347.064880,497.382080 
	C354.088104,494.846252 360.852814,491.594421 368.257538,488.303009 
	C373.674316,485.335693 378.599457,482.789917 383.457886,480.122498 
	C400.327606,470.860291 415.823334,459.625732 429.810364,446.460846 
	C438.254730,438.512848 446.269897,430.051666 453.902832,421.318481 
	C459.124298,415.344330 463.354340,408.503693 468.027649,402.050415 
	C473.351074,393.702484 479.198303,385.637451 483.890686,376.948700 
	C494.157501,357.937744 501.899200,337.821320 506.499542,316.707458 
	C509.172363,304.440186 510.383606,291.854462 512.626282,279.205994 
	C513.000000,356.927032 513.000000,434.854095 513.000000,513.000000 
	C435.312561,513.000000 357.624939,513.000000 279.468658,513.000000 
z"/>
<path fill="#FEFFFE" opacity="1.000000" stroke="none" 
	d="
M391.961975,329.539673 
	C395.966309,332.501282 400.302826,335.115936 403.871490,338.532532 
	C406.810059,341.345886 408.838348,345.110016 411.602173,349.053040 
	C415.828979,360.117859 414.966339,370.114868 409.317505,379.805878 
	C393.003662,407.793701 358.820953,418.980927 328.800568,405.619385 
	C316.832245,400.292542 305.163422,394.236603 293.614410,388.035522 
	C269.972778,375.341522 248.083481,359.975220 227.042770,343.372955 
	C226.602859,342.928070 226.162964,342.483215 225.328125,341.774658 
	C224.616074,341.326385 224.298996,341.141785 223.981903,340.957214 
	C215.358200,332.904968 206.548721,325.041504 198.142654,316.768127 
	C159.704483,278.936707 130.802902,234.547928 108.581474,185.633255 
	C101.757156,170.611298 100.839073,155.098083 106.018166,139.423752 
	C111.259918,123.559822 121.363007,111.550880 136.102386,103.662125 
	C150.698578,95.850014 167.496216,99.549789 177.694336,112.640572 
	C179.938278,115.521019 181.884323,118.633530 184.386322,122.161438 
	C193.661423,135.766586 202.551941,148.826492 211.363174,161.939697 
	C218.301788,172.266006 218.219727,181.705414 211.233276,192.094193 
	C208.820496,195.681976 206.247665,199.169205 203.974197,202.842392 
	C195.045135,217.268951 196.044876,233.118088 206.375977,246.538330 
	C224.142395,269.617188 244.561646,290.022858 267.658783,307.746185 
	C279.480042,316.817078 292.467834,318.804596 306.101990,312.739960 
	C311.503967,310.337097 316.293671,306.511719 321.256012,303.176117 
	C332.413818,295.676025 341.573730,295.578491 352.668335,303.043945 
	C365.774750,311.863159 378.864807,320.706665 391.961975,329.539673 
z"/>
<path fill="#4E8539" opacity="1.000000" stroke="none" 
	d="
M391.924683,329.161804 
	C378.864807,320.706665 365.774750,311.863159 352.668335,303.043945 
	C341.573730,295.578491 332.413818,295.676025 321.256012,303.176117 
	C316.293671,306.511719 311.503967,310.337097 306.101990,312.739960 
	C292.467834,318.804596 279.480042,316.817078 267.658783,307.746185 
	C244.561646,290.022858 224.142395,269.617188 206.375977,246.538330 
	C196.044876,233.118088 195.045135,217.268951 203.974197,202.842392 
	C206.247665,199.169205 208.820496,195.681976 211.233276,192.094193 
	C218.219727,181.705414 218.301788,172.266006 211.363174,161.939697 
	C202.551941,148.826492 193.661423,135.766586 184.632584,122.360703 
	C186.373383,123.226219 188.602142,124.098747 190.154587,125.648705 
	C256.329193,191.717606 322.448029,257.842316 388.534180,323.999725 
	C389.889832,325.356812 390.780029,327.178802 391.924683,329.161804 
z"/>
<path fill="#4E8639" opacity="1.000000" stroke="none" 
	d="
M227.078674,343.755493 
	C248.083481,359.975220 269.972778,375.341522 293.614410,388.035522 
	C305.163422,394.236603 316.832245,400.292542 328.800568,405.619385 
	C358.820953,418.980927 393.003662,407.793701 409.317505,379.805878 
	C414.966339,370.114868 415.828979,360.117859 411.865692,349.247437 
	C413.654175,350.151489 415.741425,351.229279 417.332458,352.807343 
	C432.407684,367.759888 447.386261,382.809845 462.432587,397.791626 
	C463.940186,399.292755 465.711823,400.528687 467.694275,401.969055 
	C463.354340,408.503693 459.124298,415.344330 453.902832,421.318481 
	C446.269897,430.051666 438.254730,438.512848 429.810364,446.460846 
	C415.823334,459.625732 400.327606,470.860291 383.457886,480.122498 
	C378.599457,482.789917 373.674316,485.335693 368.416504,487.974182 
	C366.565125,486.059052 365.278290,483.906036 363.559448,482.184296 
	C319.556519,438.106567 275.499725,394.082550 231.500763,350.000854 
	C229.793976,348.290863 228.565781,346.103180 227.078674,343.755493 
z"/>
<path fill="#4E8639" opacity="1.000000" stroke="none" 
	d="
M223.985977,341.142761 
	C224.298996,341.141785 224.616074,341.326385 225.091125,341.742462 
	C224.829407,341.758728 224.409714,341.543518 223.985977,341.142761 
z"/>
</svg>